<svg width="155" height="64" viewBox="0 0 155 64" fill="none" xmlns="http://www.w3.org/2000/svg">
<g clip-path="url(#clip0_4_6326)">
<path fill-rule="evenodd" clip-rule="evenodd" d="M66.2044 5.52121C40.8085 6.11543 19.7295 16.0915 16.4783 28.7734C15.8847 31.0897 15.9011 33.3725 16.525 35.6839C19.9256 48.2821 40.9267 58.1691 66.2044 58.7603V62.2557C65.7259 62.2611 65.2464 62.2636 64.765 62.2636C35.3714 62.2636 10.1725 52.8615 2.52012 40.1432C-0.582148 34.9863 -0.670997 29.6984 2.31264 24.4933C9.70596 11.5953 35.0984 2.01746 64.7645 2.01746C65.2459 2.01746 65.7254 2.01992 66.2044 2.02533V5.52121Z" fill="#133E79"/>
<path fill-rule="evenodd" clip-rule="evenodd" d="M72.21 1.92984L116.831 1.92639L108.943 10.1691L153.58 14.144V16.0684C124.1 16.0655 116.366 16.0665 86.8626 16.0665L96.5605 5.86288L72.21 3.95322V1.92984Z" fill="#E6313B"/>
<path fill-rule="evenodd" clip-rule="evenodd" d="M67.0503 21.789V43.0129H71.9931V21.789H67.0503ZM86.0232 43.0129C84.3039 39.8764 82.7075 37.3189 81.2646 35.2788C79.8217 33.2386 78.7778 31.9901 78.1946 31.5333C78.7778 31.0154 79.6986 29.889 81.0189 28.1536C82.3393 26.4177 83.8129 24.286 85.44 21.789H79.5452C77.9797 24.3165 76.506 26.4788 75.1241 28.2752C73.7427 30.0716 72.6989 31.2591 72.0238 31.8075C72.6681 32.0812 73.712 33.2081 75.1554 35.1872C76.6286 37.1362 78.2557 39.7548 80.0674 43.0129H86.0232ZM107.422 21.789C109.202 24.0123 111.843 27.5141 115.374 32.2944C111.874 37.1362 109.202 40.7291 107.391 43.0129H113.532C114.452 41.8865 116.11 39.7243 118.474 36.5578L122.926 43.0129H129.158L121.575 32.2338L128.79 21.789H122.619C121.667 23.3728 120.286 25.4129 118.505 27.9399L113.869 21.789H107.422ZM153.473 43.0129C150.772 36.5272 148.254 29.4321 145.921 21.789H138.276C135.36 28.9147 132.812 35.9793 130.663 43.0129H135.974L137.355 38.3237H146.197C146.719 39.8764 147.333 41.4602 147.978 43.0129H153.473ZM142.237 26.0524C143.066 28.9147 143.925 31.5938 144.754 34.0913H138.645C139.689 30.8327 140.61 28.1536 141.439 26.0524H142.237ZM92.9927 38.8411V33.9692H98.8562C99.9919 33.9692 100.545 34.8219 100.545 36.4967C100.545 38.0495 100.023 38.8411 98.9793 38.8411H92.9927ZM88.0494 21.789V43.0129H100.268C103.983 43.0129 105.917 41.3076 105.917 36.5272C105.917 32.1728 104.014 29.98 100.177 29.98H92.9927V26.0829H104.352V21.789H88.0494Z" fill="#133E79"/>
<path fill-rule="evenodd" clip-rule="evenodd" d="M67.0503 48.127L109.135 48.1236L101.73 55.9271L151.687 60.5405L151.692 62.2617C122.17 62.2587 108.687 62.2636 79.1675 62.2636L88.8654 52.0601L67.0503 50.1504V48.127Z" fill="#E6313B"/>
</g>
<defs>
<clipPath id="clip0_4_6326">
<rect width="153.872" height="64" fill="white" transform="translate(0.310547)"/>
</clipPath>
</defs>
</svg>
