<svg width="102" height="64" viewBox="0 0 102 64" fill="none" xmlns="http://www.w3.org/2000/svg">
<g clip-path="url(#clip0_4_6309)">
<path fill-rule="evenodd" clip-rule="evenodd" d="M51.3171 9.67833L51.5919 9.60243C37.9252 13.8323 27.1121 21.0789 26.8897 26.4012C26.6516 32.0983 38.637 33.4343 53.653 29.3877C68.6691 25.341 81.0386 17.4388 81.2757 11.7422C81.3986 8.7906 78.2357 7.01063 73.0729 6.54211C79.3837 6.82322 83.3369 8.65773 83.3369 11.9326C83.3369 18.1747 68.9985 27.2876 51.3171 32.2865C33.6358 37.2853 19.2974 36.2729 19.2974 30.031C19.2974 23.7892 33.6358 14.676 51.3171 9.67889" fill="#6D6E71"/>
<path fill-rule="evenodd" clip-rule="evenodd" d="M26.2441 42.4983L70.6327 0L66.6092 33.4081L59.2696 25.0268L26.2441 42.4983Z" fill="#ED1941"/>
<path d="M8.65321 56.6886C8.65321 58.4843 7.35776 60.2178 5.11525 60.2178H2.83985V63.7474H0.817383V53.159H4.60864C7.37336 53.159 8.65321 54.6397 8.65321 56.6886ZM6.63093 56.6886C6.63093 55.6954 5.84171 55.1759 4.86195 55.1759H2.83985V58.201H4.86195C5.84227 58.201 6.63093 57.5707 6.63093 56.6886Z" fill="#6D6E71"/>
<path d="M21.1062 58.4515C21.1065 59.5487 20.7806 60.6214 20.1697 61.5339C19.5588 62.4464 18.6902 63.1576 17.6739 63.5778C16.6576 63.9979 15.5392 64.108 14.4601 63.8942C13.381 63.6804 12.3898 63.1522 11.6117 62.3765C10.8336 61.6008 10.3037 60.6124 10.0889 59.5363C9.87418 58.4602 9.98422 57.3447 10.4051 56.331C10.8261 55.3173 11.539 54.4508 12.4537 53.8412C13.3684 53.2316 14.4439 52.9062 15.5441 52.9062C17.0182 52.9086 18.4312 53.4935 19.4738 54.5329C20.5163 55.5723 21.1033 56.9814 21.1062 58.4515ZM19.0837 58.4515C19.0835 57.7535 18.8758 57.0713 18.4868 56.491C18.0978 55.9107 17.5451 55.4585 16.8984 55.1915C16.2518 54.9245 15.5402 54.8547 14.8538 54.991C14.1674 55.1272 13.5369 55.4634 13.042 55.9569C12.5472 56.4505 12.2101 57.0793 12.0736 57.7639C11.937 58.4485 12.007 59.1581 12.2748 59.803C12.5425 60.4479 12.996 60.9991 13.5778 61.387C14.1597 61.7749 14.8438 61.982 15.5437 61.9822C16.0088 61.9832 16.4696 61.8925 16.8996 61.7154C17.3295 61.5383 17.7202 61.2783 18.0491 60.9502C18.378 60.6222 18.6387 60.2326 18.8163 59.8038C18.9938 59.375 19.0847 58.9154 19.0837 58.4515Z" fill="#6D6E71"/>
<path d="M30.8234 60.8957L31.597 62.7244C30.6364 63.5427 29.416 63.995 28.1527 64.0008C25.0399 64.0008 22.4966 61.5104 22.4966 58.4536C22.4966 55.3968 25.0399 52.9083 28.1527 52.9083C29.3376 52.9083 30.6971 53.3491 31.597 54.1686L30.8227 55.9965C30.118 55.3085 29.1707 54.9239 28.1846 54.9255C26.1623 54.9255 24.5191 56.4997 24.5191 58.4536C24.5191 60.4075 26.1623 61.9843 28.1846 61.9843C28.6752 61.9887 29.1616 61.8945 29.615 61.7075C30.0683 61.5205 30.4793 61.2444 30.8234 60.8957Z" fill="#6D6E71"/>
<path d="M42.8089 63.7474H40.2492L36.2353 59.1149V63.7474H34.2134V53.159H36.2353V57.5396L39.9965 53.159H42.5564L38.0046 58.2165L42.8089 63.7474Z" fill="#6D6E71"/>
<path d="M54.3528 58.4515C54.3531 59.5488 54.0272 60.6215 53.4162 61.534C52.8052 62.4465 51.9366 63.1578 50.9202 63.5779C49.9038 63.998 48.7854 64.1081 47.7063 63.8941C46.6272 63.6802 45.6359 63.1519 44.8579 62.3761C44.0799 61.6003 43.55 60.6118 43.3354 59.5356C43.1208 58.4594 43.231 57.3439 43.6521 56.3302C44.0732 55.3165 44.7862 54.4501 45.7011 53.8407C46.616 53.2312 47.6916 52.906 48.7918 52.9062C50.2658 52.9086 51.6787 53.4936 52.7211 54.533C53.7634 55.5724 54.3502 56.9815 54.3528 58.4515ZM52.3309 58.4515C52.3306 57.7535 52.1229 57.0712 51.7339 56.4909C51.3448 55.9106 50.792 55.4584 50.1453 55.1914C49.4986 54.9244 48.7871 54.8547 48.1006 54.991C47.4142 55.1273 46.7837 55.4636 46.2889 55.9573C45.794 56.4509 45.4571 57.0798 45.3206 57.7645C45.1841 58.4491 45.2543 59.1587 45.5222 59.8036C45.7901 60.4485 46.2437 60.9997 46.8257 61.3875C47.4076 61.7752 48.0918 61.9822 48.7918 61.9822C49.2568 61.983 49.7174 61.8922 50.1472 61.715C50.577 61.5378 50.9674 61.2777 51.2962 60.9497C51.6249 60.6217 51.8855 60.2321 52.063 59.8034C52.2404 59.3747 52.3313 58.9153 52.3303 58.4515H52.3309Z" fill="#6D6E71"/>
<path d="M64.0694 60.8957L64.8437 62.7236C63.8832 63.5419 62.663 63.9941 61.3997 64C58.287 64 55.7437 61.5096 55.7437 58.4528C55.7437 55.3961 58.287 52.9075 61.3997 52.9075C62.5849 52.9075 63.9429 53.3483 64.8437 54.1678L64.0694 55.9958C63.3648 55.3078 62.4177 54.9232 61.4317 54.9248C59.4094 54.9248 57.7657 56.499 57.7657 58.4528C57.7657 60.4067 59.4094 61.9835 61.4317 61.9835C61.922 61.9878 62.4082 61.8937 62.8613 61.7069C63.3145 61.52 63.7253 61.2441 64.0694 60.8957Z" fill="#6D6E71"/>
<path d="M79.1206 63.7474H76.9717L76.0872 56.8145L73.3074 63.7474H72.2965L69.5154 56.8145L68.6306 63.7474H66.4814L67.9984 53.159H70.0205L72.8016 59.9663L75.5826 53.159H77.6049L79.1206 63.7474Z" fill="#6D6E71"/>
<path d="M91.3259 58.4515C91.3263 59.5487 91.0004 60.6214 90.3894 61.5339C89.7785 62.4464 88.9099 63.1576 87.8936 63.5778C86.8773 63.9979 85.7589 64.108 84.6798 63.8942C83.6007 63.6804 82.6095 63.1522 81.8314 62.3765C81.0534 61.6008 80.5234 60.6124 80.3087 59.5363C80.0939 58.4602 80.2039 57.3447 80.6249 56.331C81.0458 55.3173 81.7587 54.4508 82.6734 53.8412C83.5882 53.2316 84.6636 52.9062 85.7638 52.9062C87.238 52.9083 88.6513 53.4931 89.6939 54.5325C90.7365 55.572 91.3234 56.9813 91.3259 58.4515ZM89.3036 58.4515C89.3034 57.7535 89.0956 57.0712 88.7066 56.4909C88.3176 55.9106 87.7648 55.4584 87.1181 55.1914C86.4714 54.9244 85.7598 54.8547 85.0734 54.991C84.387 55.1273 83.7565 55.4636 83.2616 55.9573C82.7668 56.4509 82.4298 57.0798 82.2934 57.7645C82.1569 58.4491 82.2271 59.1587 82.495 59.8036C82.7628 60.4485 83.2165 60.9997 83.7984 61.3875C84.3804 61.7752 85.0646 61.9822 85.7645 61.9822C86.2296 61.9831 86.6903 61.8924 87.1202 61.7152C87.5501 61.5381 87.9406 61.278 88.2694 60.95C88.5983 60.6219 88.8589 60.2324 89.0364 59.8036C89.2139 59.3749 89.3048 58.9154 89.3038 58.4515H89.3036Z" fill="#6D6E71"/>
<path d="M101.043 60.8957L101.817 62.7236C100.857 63.5419 99.6362 63.9941 98.3729 64C95.2607 64 92.7168 61.5096 92.7168 58.4528C92.7168 55.3961 95.2603 52.9075 98.3729 52.9075C99.5584 52.9075 100.916 53.3483 101.817 54.1678L101.043 55.9958C100.338 55.3078 99.3909 54.9232 98.4048 54.9248C96.3825 54.9248 94.7395 56.499 94.7395 58.4528C94.7395 60.4067 96.3825 61.9835 98.4048 61.9835C98.8952 61.9878 99.3814 61.8937 99.8346 61.7068C100.288 61.5199 100.699 61.2441 101.043 60.8957Z" fill="#6D6E71"/>
</g>
<defs>
<clipPath id="clip0_4_6309">
<rect width="101" height="64" fill="white" transform="translate(0.817383)"/>
</clipPath>
</defs>
</svg>
