<svg width="158" height="56" viewBox="0 0 158 56" fill="none" xmlns="http://www.w3.org/2000/svg">
<g clip-path="url(#clip0_4_6294)">
<path d="M32.8975 31.9901C32.1299 32.8505 31.1285 33.4606 30.0196 33.7431C28.9108 34.0257 27.7443 33.9681 26.6677 33.5777C25.5911 33.1872 24.6526 32.4814 23.9708 31.5494C23.289 30.6174 22.8946 29.5011 22.8373 28.3415C22.7801 27.1819 23.0625 26.0312 23.6491 25.0346C24.2356 24.038 25.0998 23.2403 26.1326 22.7424C27.1653 22.2445 28.3203 22.0687 29.4514 22.2371C30.5825 22.4056 31.639 22.9108 32.4875 23.689C33.0527 24.2057 33.5117 24.8307 33.8384 25.5282C34.165 26.2256 34.3527 26.9817 34.3908 27.753C34.4289 28.5243 34.3166 29.2957 34.0603 30.0228C33.8041 30.75 33.4089 31.4185 32.8975 31.9901Z" fill="url(#paint0_radial_4_6294)"/>
<path d="M30.1215 7.92812C30.5998 8.41387 31.0525 8.9083 31.4539 9.40272C32.8507 11.095 34.0012 12.9821 34.8703 15.0062C36.2411 15.2658 37.6367 15.3648 39.0298 15.3011H39.2775H39.4995C43.305 14.948 46.8567 13.2106 49.501 10.4089L49.8512 10.0446C49.3216 9.40272 48.7835 8.77819 48.1942 8.17967C43.4902 3.41923 37.2566 0.53674 30.6326 0.0589501C24.0086 -0.41884 17.4364 1.53998 12.1172 5.57744C20.5727 1.39652 26.4404 4.27633 30.1215 7.92812Z" fill="url(#paint1_linear_4_6294)"/>
<path d="M10.5456 36.4312C10.7164 35.7633 10.9128 35.1214 11.1263 34.5229C11.8753 32.4504 12.9105 30.4965 14.2011 28.7199C13.7391 27.3858 13.1257 26.1108 12.3733 24.9207L12.2367 24.7038L12.1086 24.5217C9.91715 21.382 6.68976 19.1446 3.01243 18.2156L2.5256 18.0681C2.24375 18.8488 1.98752 19.6382 1.76545 20.4535C0.0541605 26.9688 0.707978 33.8919 3.60746 39.958C6.50695 46.0241 11.4586 50.8284 17.5577 53.4932C9.74271 48.1152 9.25588 41.4882 10.5456 36.4312Z" fill="url(#paint2_linear_4_6294)"/>
<path d="M44.718 39.4412C44.0603 39.6233 43.4112 39.7708 42.7877 39.8835C40.6468 40.26 38.4639 40.3242 36.3051 40.0744C35.4017 41.1362 34.6222 42.3004 33.982 43.544C33.982 43.6221 33.9051 43.6915 33.871 43.7695C33.8361 43.8372 33.8048 43.9067 33.777 43.9777C32.1789 47.4764 31.8757 51.4427 32.9229 55.15C32.9229 55.3148 33.0169 55.4796 33.0681 55.6444C33.871 55.4969 34.6823 55.3408 35.4852 55.1239C41.8852 53.3651 47.4507 49.3312 51.1688 43.7561C54.887 38.1811 56.5107 31.4356 55.7444 24.7472C55.0611 34.3148 49.6547 38.0446 44.718 39.4412Z" fill="url(#paint3_linear_4_6294)"/>
<path d="M12.0741 5.57744C8.02497 8.4506 4.85947 12.4293 2.94385 17.0533C5.79206 17.664 8.43063 19.0288 10.5921 21.0091C12.7535 22.9894 14.3609 25.5149 15.2514 28.3296C16.0115 27.8352 18.3517 25.9529 19.9233 20.7831C21.8279 14.5291 25.4322 9.91449 30.1212 7.9021C30.1212 7.92812 24.1852 -0.650566 12.0741 5.57744Z" fill="url(#paint4_linear_4_6294)"/>
<path d="M31.0865 50.6047C31.0832 46.4139 32.6285 42.3743 35.4168 39.285L35.4595 39.2243C34.8873 38.6084 32.8972 37.0991 27.7726 38.2788C21.5292 39.7274 14.5939 39.5626 10.5455 36.4312C10.5455 36.4312 6.18962 45.9727 17.5576 53.4758C22.0252 55.6013 26.9942 56.3983 31.8894 55.7745C31.3442 54.1076 31.073 52.361 31.0865 50.6047Z" fill="url(#paint5_linear_4_6294)"/>
<path d="M50.5257 10.9814C48.9965 12.7466 47.1151 14.1614 45.0065 15.132C42.8979 16.1025 40.6101 16.6066 38.2951 16.6109C37.0752 16.6065 35.8589 16.4757 34.6652 16.2206H34.6054C34.3662 17.088 34.1783 19.5601 37.6374 23.342C42.0189 28.1475 45.3243 34.3234 44.7179 39.4498C44.7179 39.4498 54.967 38.5217 55.7442 24.7559C55.321 19.7559 53.5116 14.98 50.5257 10.9814Z" fill="url(#paint6_linear_4_6294)"/>
<path d="M68.496 35.1648H65.6177V21.5378H70.2383C73.6547 21.5378 75.7387 22.9603 75.7387 26.0917C75.7387 29.223 73.5522 30.9058 69.9992 30.9058H68.496V35.1648ZM68.4362 28.3296H69.9992C71.7074 28.3296 72.7579 27.653 72.7579 26.2131C72.7579 24.7732 71.7928 24.114 69.9992 24.114H68.4362V28.3296Z" fill="#1A1A1A"/>
<path d="M77.8311 28.3556C77.8311 23.7757 80.5727 21.3036 84.2709 21.3036C88.4133 21.3036 90.8133 23.9752 90.8133 28.3556C90.8133 33.2045 88.029 35.399 84.3478 35.399C80.4617 35.399 77.8311 32.9616 77.8311 28.3556ZM87.7642 28.3556C87.7642 25.259 86.3635 23.8798 84.2709 23.8798C82.3748 23.8798 80.8546 25.3197 80.8546 28.3556C80.8546 31.3916 82.409 32.8315 84.4247 32.8315C86.4403 32.8315 87.7642 31.4089 87.7642 28.3556Z" fill="#1A1A1A"/>
<path d="M103.608 34.6183C102.487 35.2 101.234 35.4694 99.9778 35.399C95.8781 35.399 93.145 33.0049 93.145 28.5291C93.145 23.8364 95.844 21.3036 100.234 21.3036C101.404 21.2761 102.567 21.4946 103.65 21.9455L103.018 24.4002C102.262 24.1497 101.474 24.0124 100.678 23.9926C98.0305 23.9926 96.2283 25.337 96.2283 28.3296C96.2283 31.2094 97.9365 32.6667 100.661 32.6667C101.477 32.6399 102.281 32.4636 103.035 32.1462L103.608 34.6183Z" fill="#1A1A1A"/>
<path d="M114.13 31.5303H108.434L107.135 35.1648H105.427L110.552 21.5378H112.26L117.282 35.1648H115.48L114.13 31.5303ZM108.955 29.9343H113.558L111.321 23.5242H111.244L108.955 29.9343Z" fill="#1A1A1A"/>
<path d="M123.21 35.1648H121.501V23.1772H117.53V21.5378H127.19V23.1772H123.21V35.1648Z" fill="#1A1A1A"/>
<path d="M129 28.3556C129 24.0186 131.477 21.347 134.979 21.347C138.967 21.347 141.111 24.2268 141.111 28.3556C141.111 32.9876 138.549 35.3643 135.038 35.3643C131.357 35.3643 129 32.6753 129 28.3556ZM139.317 28.3556C139.317 24.6171 137.669 22.9777 135.047 22.9777C132.69 22.9777 130.87 24.7125 130.87 28.3556C130.87 31.9987 132.63 33.7249 135.278 33.7249C137.763 33.7249 139.317 31.8773 139.317 28.3556Z" fill="#1A1A1A"/>
<path d="M157.818 35.1648H156.109L155.255 24.5217L151.839 35.1648H150.037L146.672 24.5564L145.818 35.1648H144.109L145.254 21.5378H147.363L150.985 33.2565L154.555 21.5378H156.665L157.818 35.1648Z" fill="#1A1A1A"/>
</g>
<defs>
<radialGradient id="paint0_radial_4_6294" cx="0" cy="0" r="1" gradientUnits="userSpaceOnUse" gradientTransform="translate(26.8068 23.9037) scale(8.12049 8.24708)">
<stop stop-color="#4495D1"/>
<stop offset="1" stop-color="#15256D"/>
</radialGradient>
<linearGradient id="paint1_linear_4_6294" x1="20.6924" y1="1.88849" x2="45.0985" y2="11.5632" gradientUnits="userSpaceOnUse">
<stop stop-color="#4495D1"/>
<stop offset="1" stop-color="#15256D"/>
</linearGradient>
<linearGradient id="paint2_linear_4_6294" x1="10.1304" y1="47.7755" x2="6.34747" y2="21.4513" gradientUnits="userSpaceOnUse">
<stop stop-color="#4495D1"/>
<stop offset="1" stop-color="#15256D"/>
</linearGradient>
<linearGradient id="paint3_linear_4_6294" x1="54.6041" y1="34.145" x2="33.7382" y2="50.2381" gradientUnits="userSpaceOnUse">
<stop stop-color="#4495D1"/>
<stop offset="1" stop-color="#15256D"/>
</linearGradient>
<linearGradient id="paint4_linear_4_6294" x1="10.9638" y1="20.7745" x2="22.1264" y2="3.90516" gradientUnits="userSpaceOnUse">
<stop stop-color="#4495D1"/>
<stop offset="1" stop-color="#15256D"/>
</linearGradient>
<linearGradient id="paint5_linear_4_6294" x1="31.6331" y1="45.0446" x2="12.034" y2="47.0131" gradientUnits="userSpaceOnUse">
<stop stop-color="#4495D1"/>
<stop offset="1" stop-color="#15256D"/>
</linearGradient>
<linearGradient id="paint6_linear_4_6294" x1="44.2481" y1="16.2639" x2="48.3572" y2="36.7193" gradientUnits="userSpaceOnUse">
<stop stop-color="#4495D1"/>
<stop offset="1" stop-color="#15256D"/>
</linearGradient>
<clipPath id="clip0_4_6294">
<rect width="157" height="56" fill="white" transform="translate(0.817383)"/>
</clipPath>
</defs>
</svg>
