<svg width="161" height="46" viewBox="0 0 161 46" fill="none" xmlns="http://www.w3.org/2000/svg">
<mask id="mask0_4_6449" style="mask-type:luminance" maskUnits="userSpaceOnUse" x="0" y="0" width="161" height="46">
<path d="M160.118 0.960194H0.342773V45.0398H160.118V0.960194Z" fill="white"/>
</mask>
<g mask="url(#mask0_4_6449)">
<path d="M18.3338 10.1532C21.1565 17.3416 16.5541 21.9556 11.9696 26.5772C7.703 31.2991 3.94468 36.2075 11.5038 45.0408C8.68007 37.8534 13.2834 33.2384 17.8641 28.6215C22.1345 23.8892 25.8929 18.9875 18.3338 10.1532Z" fill="#EF3D42"/>
<path d="M11.5037 0.960258C14.3312 8.15149 9.73068 12.7627 5.14243 17.3814C0.876722 22.1071 -2.88065 27.0154 4.68125 35.8488C1.85568 28.6557 6.45808 24.0455 11.0416 19.4267C15.3102 14.7001 19.0638 9.7936 11.5037 0.960258Z" fill="#00B274"/>
</g>
<path d="M127.506 29.429V44.1219H133.918V38.7431H140.964V35.527H133.918V32.645H147.895V44.1219H154.308V32.645H160.118V29.429H127.506Z" fill="#00B274"/>
<path d="M113.748 40.9332V38.3863H122.109V35.1674H113.748V32.645H124.488V29.429H107.335V44.1219H124.62V40.9332H113.748Z" fill="#00B274"/>
<path d="M46.1159 29.429H28.3467V32.645H34.0252V44.1219H40.4374V32.645H46.1159V29.429Z" fill="#EF3D42"/>
<path d="M50.9709 38.5547L53.9379 32.8675L56.7776 38.5547H50.9709ZM58.7761 29.429H51.9027L43.8994 44.1219H48.067L49.3827 41.5995H58.3696L59.6815 44.1219H66.7832L58.7761 29.429Z" fill="#EF3D42"/>
<path d="M99.4671 29.429V36.7745L89.2117 29.429H84.2349V44.1219H88.6241V36.0381L99.1549 44.1219H103.855V29.429H99.4671Z" fill="#00B274"/>
<path d="M82.0559 29.429H64.6592V32.645H70.3367V44.1219H76.7499V32.645H82.0559V29.429Z" fill="#EF3D42"/>
</svg>
