<svg width="162" height="24" viewBox="0 0 162 24" fill="none" xmlns="http://www.w3.org/2000/svg">
<path d="M20.6794 12.887C26.4451 12.6874 29.9506 10.2451 29.9506 7.36512C29.9506 4.3008 26.1376 1.82016 19.6339 1.82016H18.7037L20.6179 0L17.7735 0.00768047L13.0841 1.82016H5.61947C2.99801 1.82016 1.53738 2.46528 0.953125 3.71712H16.3052C20.541 3.71712 23.3854 4.35456 23.3854 7.27296C23.3854 10.4141 19.9645 11.0285 16.3052 11.0285H9.40944L15.521 17.5872C20.6948 23.0323 25.5456 24 31.565 24L20.6794 12.887Z" fill="#DD052B"/>
<path d="M70.2489 18.2092C67.4276 18.2092 65.475 16.1433 65.475 12.8793C65.475 9.63064 67.4276 7.50328 70.2489 7.50328C73.0933 7.50328 75.0229 9.63064 75.0229 12.8793C75.0229 16.1279 73.0856 18.2092 70.2489 18.2092ZM70.2489 6.14392C64.9829 6.14392 61.5005 8.88568 61.5005 12.8793C61.5005 16.8729 64.9906 19.5686 70.2489 19.5686C75.5149 19.5686 78.9974 16.8729 78.9974 12.8793C78.9974 8.88568 75.5072 6.14392 70.2489 6.14392Z" fill="#DD052B"/>
<path d="M46.3714 7.79521C47.2631 7.68001 48.4239 7.5725 49.677 7.5725C51.9833 7.5725 53.3824 8.49409 53.3824 10.4218C53.3824 12.3955 51.9833 13.4938 49.677 13.4938H46.3714V7.79521ZM57.3646 10.4448C57.3646 7.28833 54.3895 6.21313 50.0768 6.21313C47.832 6.21313 45.8102 6.47425 42.812 6.55873V19.2461H46.3637V14.8147H50.0691C50.0921 14.8147 50.1152 14.8147 50.1383 14.8147L51.3759 16.3123C53.467 18.816 55.066 19.4919 58.3024 19.4919H58.7483L54.0205 14.3693C56.1576 13.7626 57.3646 12.5338 57.3646 10.4448Z" fill="#DD052B"/>
<path fill-rule="evenodd" clip-rule="evenodd" d="M120.479 6.47433H124.031V19.2385H120.479V6.47433Z" fill="#DD052B"/>
<path d="M142.135 6.47424L137.254 13.1712L132.426 6.47424H128.251L134.471 14.8531V19.2384H138.022V14.8531L144.172 6.47424H142.135Z" fill="#DD052B"/>
<path d="M148.369 14.3538L151.544 8.17141L154.681 14.3538H148.369ZM157.164 19.246H161.115L154.543 6.48181H152.413H150.683H150.46L143.911 19.246H145.863L147.608 15.8437H155.442L157.164 19.246Z" fill="#DD052B"/>
<path d="M104.182 9.41561C104.182 8.40953 105.381 7.46489 107.802 7.46489C111.846 7.46489 113.929 9.02393 113.929 9.02393L114.683 7.09625C114.683 7.09625 111.708 6.15161 107.979 6.15161C103.451 6.15161 100.96 7.55705 100.96 10.2297C100.96 16.0895 112.177 13.2787 112.177 16.4198C112.177 17.4719 110.87 18.1171 108.087 18.1171C104.243 18.1171 101.36 16.581 101.36 16.581V18.6316C101.36 18.6316 104.289 19.5993 108.333 19.5993C112.822 19.5993 115.375 18.5471 115.375 15.5366C115.375 9.74585 104.182 12.2419 104.182 9.41561Z" fill="#DD052B"/>
<path d="M86.2772 9.41567C86.2772 8.40959 87.4765 7.46495 89.8981 7.46495C93.9417 7.46495 96.0251 9.02399 96.0251 9.02399L96.7784 7.09631C96.7784 7.09631 93.8034 6.15167 90.0749 6.15167C85.5469 6.15167 83.0562 7.55711 83.0562 10.2298C83.0562 16.0896 94.2723 13.2787 94.2723 16.4198C94.2723 17.472 92.9654 18.1171 90.1902 18.1171C86.3464 18.1171 83.4636 16.5811 83.4636 16.5811V18.6317C83.4636 18.6317 86.3926 19.5993 90.4362 19.5993C94.9257 19.5993 97.478 18.5472 97.478 15.5366C97.4703 9.74591 86.2772 12.2419 86.2772 9.41567Z" fill="#DD052B"/>
</svg>
