<svg width="162" height="26" viewBox="0 0 162 26" fill="none" xmlns="http://www.w3.org/2000/svg">
<g clip-path="url(#clip0_4_6423)">
<path d="M25.2013 0.5H0.046875V5.49942H25.2013V0.5Z" fill="#FCB53B"/>
<path d="M25.2013 10.4989H0.046875V15.4984H25.2013V10.4989Z" fill="#F57F29"/>
<path d="M25.2013 20.4977H0.046875V25.4972H25.2013V20.4977Z" fill="#E32213"/>
<path d="M122.951 5.50417L126.925 15.4933H118.966L122.951 5.50417ZM119.096 0.502838L109.44 25.5H115.207L117.096 20.4894L128.807 20.4943L130.695 25.5H136.432L126.214 0.502838H119.096Z" fill="black"/>
<path d="M35.2607 0.502838V25.5H55.8986V20.5038L40.3057 20.495V15.4987H55.8986V10.4896H40.3057V5.50592L55.8986 5.48917V0.502838H35.2607Z" fill="black"/>
<mask id="mask0_4_6423" style="mask-type:luminance" maskUnits="userSpaceOnUse" x="0" y="0" width="162" height="26">
<path d="M161.047 0.5H0.046875V25.5H161.047V0.5Z" fill="white"/>
</mask>
<g mask="url(#mask0_4_6423)">
<path d="M139.918 25.4802H149.672H153.543C157.605 25.4802 161.047 22.7357 161.047 18.0605C161.047 16.1336 160.303 14.2429 157.981 12.9915C160.669 11.4375 161.047 9.84933 161.047 7.9225C161.047 3.85566 157.605 0.502747 153.543 0.502747H149.672H139.919V5.58641H153.309C154.675 5.58641 155.783 6.68733 155.783 8.04541C155.783 9.4035 154.675 10.5045 153.309 10.5045H150.635H142.427V15.4783H150.635H153.309C154.675 15.4783 155.783 16.5793 155.783 17.9373C155.783 19.2955 154.675 20.3965 153.309 20.3965H139.919L139.918 25.4802Z" fill="black"/>
</g>
<mask id="mask1_4_6423" style="mask-type:luminance" maskUnits="userSpaceOnUse" x="0" y="0" width="162" height="26">
<path d="M161.047 0.5H0.046875V25.5H161.047V0.5Z" fill="white"/>
</mask>
<g mask="url(#mask1_4_6423)">
<path d="M102.483 0.502838H98.6119H88.6069V25.5H93.6405V15.4784H99.5751H102.483C106.644 15.4784 110.018 12.126 110.018 7.99059C110.018 3.85517 106.644 0.502838 102.483 0.502838ZM102.249 10.5046H93.6335V5.5865H102.249C103.615 5.5865 104.723 6.68742 104.723 8.04551C104.723 9.40359 103.615 10.5046 102.249 10.5046Z" fill="black"/>
</g>
<mask id="mask2_4_6423" style="mask-type:luminance" maskUnits="userSpaceOnUse" x="0" y="0" width="162" height="26">
<path d="M161.047 0.5H0.046875V25.5H161.047V0.5Z" fill="white"/>
</mask>
<g mask="url(#mask2_4_6423)">
<path d="M80.1446 12.9914C82.8317 11.4374 83.2099 9.84933 83.2099 7.9225C83.2099 3.85566 79.7684 0.502747 75.706 0.502747L75.7061 0.50283C75.705 0.50283 75.704 0.502747 75.703 0.502747H61.9526V25.4801H75.9544C80.0169 25.4801 83.4585 22.7356 83.4585 18.0604C83.4585 16.1336 82.4659 14.2431 80.1446 12.9914ZM66.9792 5.5865H75.4685C76.8352 5.5865 77.943 6.68741 77.943 8.0455C77.943 9.40358 76.8352 10.5046 75.4685 10.5046H72.9208H66.9792V5.5865ZM75.7201 20.3965H66.9792V15.4783H75.7201C77.0867 15.4783 78.1945 16.5793 78.1945 17.9374C78.1945 19.2955 77.0867 20.3965 75.7201 20.3965Z" fill="black"/>
</g>
</g>
<defs>
<clipPath id="clip0_4_6423">
<rect width="161" height="25" fill="white" transform="translate(0.046875 0.5)"/>
</clipPath>
</defs>
</svg>
