<svg width="48" height="61" viewBox="0 0 48 61" fill="none" xmlns="http://www.w3.org/2000/svg">
<path d="M46.6668 33.375C46.6668 47.75 36.7502 54.9375 24.9635 59.1063C24.3463 59.3185 23.6759 59.3083 23.0652 59.0775C11.2502 54.9375 1.3335 47.75 1.3335 33.375V13.25C1.3335 12.4875 1.63201 11.7562 2.16336 11.2171C2.69471 10.6779 3.41538 10.375 4.16683 10.375C9.8335 10.375 16.9168 6.92501 21.8468 2.55501C22.4471 2.03463 23.2107 1.74872 24.0002 1.74872C24.7897 1.74872 25.5532 2.03463 26.1535 2.55501C31.1118 6.95376 38.1668 10.375 43.8335 10.375C44.5849 10.375 45.3056 10.6779 45.837 11.2171C46.3683 11.7562 46.6668 12.4875 46.6668 13.25V33.375Z" stroke="black" stroke-width="2" stroke-linecap="round" stroke-linejoin="round"/>
</svg>
