<svg width="68" height="69" viewBox="0 0 68 69" fill="none" xmlns="http://www.w3.org/2000/svg">
<path d="M56.6668 37.375C56.6668 51.75 46.7502 58.9375 34.9635 63.1063C34.3463 63.3185 33.6759 63.3083 33.0652 63.0775C21.2502 58.9375 11.3335 51.75 11.3335 37.375V17.25C11.3335 16.4875 11.632 15.7562 12.1634 15.2171C12.6947 14.6779 13.4154 14.375 14.1668 14.375C19.8335 14.375 26.9168 10.925 31.8468 6.55501C32.4471 6.03463 33.2107 5.74872 34.0002 5.74872C34.7897 5.74872 35.5532 6.03463 36.1535 6.55501C41.1118 10.9538 48.1668 14.375 53.8335 14.375C54.5849 14.375 55.3056 14.6779 55.837 15.2171C56.3683 15.7562 56.6668 16.4875 56.6668 17.25V37.375Z" stroke="black" stroke-width="2" stroke-linecap="round" stroke-linejoin="round"/>
<path d="M25.5 34.5L31.1667 40.25L42.5 28.75" stroke="black" stroke-width="2" stroke-linecap="round" stroke-linejoin="round"/>
</svg>
