<svg width="69" height="69" viewBox="0 0 69 69" fill="none" xmlns="http://www.w3.org/2000/svg">
<path d="M12.9375 47.4375C8.625 51.06 7.1875 61.8125 7.1875 61.8125C7.1875 61.8125 17.94 60.375 21.5625 56.0625C23.6037 53.6475 23.575 49.9387 21.3037 47.6962C20.1863 46.6296 18.7142 46.0133 17.1702 45.9656C15.6261 45.9178 14.1188 46.442 12.9375 47.4375ZM34.5 43.125L25.875 34.5C27.4049 30.5308 29.3313 26.7262 31.625 23.1437C34.9749 17.7876 39.6394 13.3775 45.1749 10.333C50.7103 7.28849 56.9327 5.7108 63.25 5.74998C63.25 13.57 61.0075 27.3125 46 37.375C42.3681 39.6705 38.5155 41.5967 34.5 43.125Z" stroke="black" stroke-width="2" stroke-linecap="round" stroke-linejoin="round"/>
<path d="M25.875 34.5H11.5C11.5 34.5 13.0812 25.7887 17.25 23C21.9075 19.895 31.625 23 31.625 23M34.5 43.125V57.5C34.5 57.5 43.2112 55.9187 46 51.75C49.105 47.0925 46 37.375 46 37.375" stroke="black" stroke-width="2" stroke-linecap="round" stroke-linejoin="round"/>
</svg>
