<svg width="69" height="69" viewBox="0 0 69 69" fill="none" xmlns="http://www.w3.org/2000/svg">
<path d="M17.25 51.75H51.75M17.25 40.25H51.75M63.25 24.0062V57.5C63.25 59.025 62.6442 60.4875 61.5659 61.5658C60.4875 62.6442 59.025 63.25 57.5 63.25H11.5C9.97501 63.25 8.51247 62.6442 7.43414 61.5658C6.3558 60.4875 5.75 59.025 5.75 57.5V24.0062C5.75463 22.8595 6.10201 21.7404 6.74752 20.7926C7.39302 19.8449 8.30717 19.1117 9.3725 18.6875L32.3725 9.48747C33.7387 8.94338 35.2613 8.94338 36.6275 9.48747L59.6275 18.6875C60.6928 19.1117 61.607 19.8449 62.2525 20.7926C62.898 21.7404 63.2454 22.8595 63.25 24.0062Z" stroke="black" stroke-width="2" stroke-linecap="round" stroke-linejoin="round"/>
<path d="M17.25 28.75H51.75V63.25H17.25V28.75Z" stroke="black" stroke-width="2" stroke-linecap="round" stroke-linejoin="round"/>
</svg>
