<svg width="68" height="69" viewBox="0 0 68 69" fill="none" xmlns="http://www.w3.org/2000/svg">
<path d="M56.6666 8.62498V20.125M62.3332 14.375H50.9999M11.3332 48.875V54.625M14.1666 51.75H8.49991M28.1547 44.5625C27.9018 43.5675 27.3907 42.6595 26.6747 41.933C25.9586 41.2064 25.0638 40.6878 24.0832 40.4311L6.70075 35.8829C6.40418 35.7974 6.14317 35.6162 5.95731 35.3666C5.77146 35.1171 5.6709 34.8128 5.6709 34.5C5.6709 34.1872 5.77146 33.8829 5.95731 33.6333C6.14317 33.3838 6.40418 33.2025 6.70075 33.1171L24.0832 28.566C25.0634 28.3096 25.958 27.7914 26.674 27.0653C27.3901 26.3393 27.9013 25.4319 28.1547 24.4375L32.6371 6.79936C32.7204 6.49725 32.8988 6.23109 33.1452 6.04149C33.3915 5.8519 33.6922 5.74927 34.0013 5.74927C34.3105 5.74927 34.6112 5.8519 34.8575 6.04149C35.1038 6.23109 35.2823 6.49725 35.3656 6.79936L39.8451 24.4375C40.098 25.4324 40.6091 26.3404 41.3252 27.067C42.0412 27.7936 42.936 28.3122 43.9166 28.5689L61.2991 33.1142C61.598 33.1979 61.8616 33.3788 62.0495 33.6291C62.2373 33.8794 62.339 34.1853 62.339 34.5C62.339 34.8146 62.2373 35.1206 62.0495 35.3709C61.8616 35.6212 61.598 35.8021 61.2991 35.8857L43.9166 40.4311C42.936 40.6878 42.0412 41.2064 41.3252 41.933C40.6091 42.6595 40.098 43.5675 39.8451 44.5625L35.3627 62.2006C35.2794 62.5027 35.101 62.7689 34.8547 62.9585C34.6083 63.1481 34.3077 63.2507 33.9985 63.2507C33.6893 63.2507 33.3886 63.1481 33.1423 62.9585C32.896 62.7689 32.7176 62.5027 32.6342 62.2006L28.1547 44.5625Z" stroke="black" stroke-width="2" stroke-linecap="round" stroke-linejoin="round"/>
</svg>
