<svg width="68" height="69" viewBox="0 0 68 69" fill="none" xmlns="http://www.w3.org/2000/svg">
<path d="M19.8332 28.75V63.25M42.4998 16.905L39.6665 28.75H56.1848C57.0646 28.75 57.9322 28.9578 58.719 29.357C59.5059 29.7563 60.1903 30.3359 60.7182 31.05C61.246 31.7641 61.6027 32.5931 61.7601 33.4714C61.9175 34.3497 61.8712 35.253 61.6248 36.11L55.0232 59.11C54.6799 60.3044 53.9641 61.3535 52.9832 62.1C52.0023 62.8465 50.8093 63.25 49.5832 63.25H11.3332C9.83028 63.25 8.38894 62.6442 7.32623 61.5659C6.26353 60.4875 5.6665 59.025 5.6665 57.5V34.5C5.6665 32.975 6.26353 31.5125 7.32623 30.4341C8.38894 29.3558 9.83028 28.75 11.3332 28.75H19.1532C20.2074 28.7494 21.2406 28.4505 22.1365 27.8867C23.0325 27.3229 23.7557 26.5167 24.2248 25.5588L33.9998 5.75C35.336 5.76679 36.6511 6.08974 37.847 6.69471C39.0428 7.29969 40.0885 8.17106 40.9058 9.24371C41.7232 10.3164 42.2911 11.5626 42.5671 12.8892C42.8431 14.2159 42.8201 15.5886 42.4998 16.905Z" stroke="black" stroke-width="2" stroke-linecap="round" stroke-linejoin="round"/>
</svg>
