<svg width="40" height="40" viewBox="0 0 40 40" fill="none" xmlns="http://www.w3.org/2000/svg">
<path d="M12.5 33.3335C13.8807 33.3335 15 32.2142 15 30.8335C15 29.4528 13.8807 28.3335 12.5 28.3335C11.1193 28.3335 10 29.4528 10 30.8335C10 32.2142 11.1193 33.3335 12.5 33.3335Z" fill="white"/>
<path d="M27.5 33.3335C28.8807 33.3335 30 32.2142 30 30.8335C30 29.4528 28.8807 28.3335 27.5 28.3335C26.1193 28.3335 25 29.4528 25 30.8335C25 32.2142 26.1193 33.3335 27.5 33.3335Z" fill="white"/>
<path d="M5 8.3335H8.33333L9.33333 13.3335M9.33333 13.3335L11.6667 25.0002H28.3333L31.6667 13.3335H9.33333Z" stroke="white" stroke-width="2" stroke-linecap="round" stroke-linejoin="round"/>
</svg>
