<svg width="16" height="16" viewBox="0 0 16 16" fill="none" xmlns="http://www.w3.org/2000/svg">
<path d="M10.2604 8.80669C10.6237 8.9201 10.9718 9.0768 11.2971 9.27335L11.2763 9.26135C11.6317 9.41802 11.9387 9.60135 12.2189 9.81668L12.2088 9.80935C12.2222 9.85002 12.2303 9.89602 12.2303 9.94468L12.2296 9.96602V9.96535C12.2195 10.2513 12.1557 10.52 12.0475 10.7647L12.0529 10.7507C11.8977 11.0593 11.6391 11.2973 11.3226 11.424L11.3132 11.4273C10.9858 11.5972 10.6237 11.6909 10.2544 11.7013H10.2503C9.54541 11.6114 8.86414 11.3892 8.24287 11.0467L8.27176 11.0613C7.61187 10.7647 7.01179 10.3516 6.50078 9.84202L6.50011 9.84135C5.94273 9.26549 5.43736 8.64222 4.9898 7.97869L4.95822 7.92936C4.51408 7.35326 4.2564 6.65709 4.21919 5.93269L4.21852 5.92403V5.84136C4.22837 5.53193 4.3016 5.22772 4.43373 4.94726C4.56587 4.66681 4.75415 4.41597 4.98711 4.21003L4.98912 4.20803C5.13303 4.06576 5.32685 3.98429 5.52996 3.9807H5.53063C5.59849 3.9827 5.66366 3.98803 5.72681 3.99737L5.71808 3.99603C5.77653 4.0047 5.84438 4.01003 5.91426 4.01137H5.91627C6.01409 4.00193 6.11222 4.02592 6.19442 4.07937L6.19307 4.0787C6.26496 4.15737 6.32005 4.2527 6.35297 4.35737L6.35431 4.3627C6.40985 4.50048 6.52452 4.80359 6.6983 5.27203C6.789 5.48136 6.87768 5.73936 6.9489 6.00469L6.9583 6.04669C6.90985 6.27872 6.78363 6.48762 6.60021 6.63936L6.59819 6.64069C6.35857 6.89225 6.23876 7.05225 6.23876 7.12069C6.24132 7.17682 6.26022 7.231 6.29318 7.27669L6.29251 7.27602C6.55235 7.80905 6.91163 8.2884 7.35133 8.68869L7.35469 8.69202C7.81501 9.10349 8.33106 9.44906 8.88784 9.71868L8.92748 9.73602C8.99556 9.77986 9.07417 9.80494 9.15524 9.80868H9.15658C9.26094 9.80868 9.44861 9.64157 9.71959 9.30735C9.99057 8.97313 10.1706 8.80602 10.2598 8.80602L10.2604 8.80669ZM8.14613 14.284H8.16091C9.04309 14.2853 9.91583 14.1038 10.7233 13.7513L10.6823 13.7673C12.2652 13.1047 13.4994 11.88 14.1511 10.3513L14.1672 10.3093C14.4964 9.56735 14.6879 8.70202 14.6879 7.79269C14.6879 6.88336 14.4964 6.01803 14.1511 5.2347L14.1672 5.27603C13.4994 3.70537 12.2652 2.48071 10.7247 1.83404L10.6823 1.81804C9.93458 1.49137 9.06252 1.30137 8.14613 1.30137C7.22973 1.30137 6.35767 1.49137 5.56826 1.83404L5.60991 1.81804C4.02704 2.48071 2.79286 3.70537 2.14117 5.23403L2.12505 5.27603C1.77864 6.07318 1.6014 6.93259 1.60437 7.80069C1.6022 9.17324 2.04477 10.5101 2.86676 11.614L2.854 11.5967L2.03099 14.0053L4.55175 13.2093C5.60479 13.9131 6.84628 14.2875 8.11589 14.284H8.14747H8.14613ZM8.14613 4.52899e-05H8.1683C9.26206 4.52899e-05 10.3021 0.228045 11.242 0.639377L11.1929 0.620044C13.0909 1.41804 14.571 2.8867 15.3557 4.71937L15.3752 4.77003C15.7702 5.66136 16 6.70069 16 7.79336C16 8.88602 15.7702 9.92535 15.3557 10.866L15.3752 10.8167C14.571 12.7 13.0909 14.1687 11.244 14.9473L11.1929 14.9667C10.3014 15.3587 9.26139 15.5867 8.16763 15.5867H8.14478H8.14613H8.11052C6.72719 15.5867 5.42851 15.226 4.30519 14.5947L4.34348 14.6147L0 16L1.41692 11.814C0.677296 10.6067 0.288095 9.2202 0.292253 7.80736C0.292253 6.71003 0.522024 5.66603 0.936553 4.72003L0.917069 4.77003C1.72127 2.8867 3.20134 1.41804 5.04825 0.639377L5.09931 0.620044C6.05355 0.207577 7.08379 -0.00355537 8.12463 4.52899e-05H8.1468H8.14546H8.14613Z" fill="#00C31F"/>
</svg>
