<svg style="width:0; height:0; visibility: hidden;" xmlns="http://www.w3.org/2000/svg">
	<symbol id="svg-logo" viewBox="0 0 208 46">
		<g>

			<path
				d="M3.21219 0H25.1113V6.43174H6.43037V38.3152H38.3011V29.8492H44.7314V44.741H0V0H3.21219Z"
				fill="currentColor" />
			<path
				d="M19.5481 33.2535V11.4873H25.1769V33.2535H19.5481ZM18.1962 29.4722C16.3479 29.4722 14.7567 29.1551 13.4228 28.5209C12.0889 27.8867 11.066 27.0013 10.3482 25.8705C9.63039 24.7337 9.27148 23.4055 9.27148 21.8858C9.27148 20.3661 9.63039 19.0079 10.3482 17.8891C11.066 16.7643 12.0889 15.8848 13.4228 15.2506C14.7567 14.6164 16.3479 14.2993 18.1962 14.2993H21.7255V18.7626H18.4953C17.7715 18.7626 17.1435 18.8823 16.6171 19.1276C16.0907 19.3729 15.6839 19.7319 15.3908 20.2046C15.0977 20.6772 14.9541 21.2396 14.9541 21.8918C14.9541 22.5439 15.0977 23.1063 15.3908 23.579C15.6839 24.0516 16.0907 24.4106 16.6171 24.6559C17.1435 24.9012 17.7656 25.0209 18.4953 25.0209H21.7494V29.4842H18.1962V29.4722ZM22.9457 29.4722V25.0089H26.1998C26.9415 25.0089 27.5756 24.8833 28.102 24.6439C28.6284 24.3986 29.0352 24.0397 29.3283 23.567C29.6214 23.0943 29.7649 22.5319 29.7649 21.8798C29.7649 21.2276 29.6214 20.6652 29.3283 20.1926C29.0411 19.7199 28.6284 19.3609 28.102 19.1156C27.5756 18.8703 26.9415 18.7507 26.1998 18.7507H22.9697V14.2874H26.5228C28.3712 14.2874 29.9623 14.6045 31.2962 15.2387C32.6302 15.8729 33.653 16.7524 34.3709 17.8772C35.0887 19.002 35.4476 20.3362 35.4476 21.8738C35.4476 23.4114 35.0887 24.7277 34.3709 25.8585C33.653 26.9893 32.6302 27.8748 31.2962 28.509C29.9623 29.1432 28.3712 29.4603 26.5228 29.4603H22.9398L22.9457 29.4722Z"
				fill="currentColor" />
			<path d="M44.7311 0.90332H38.3008V25.2781H44.7311V0.90332Z" fill="#E3000F" />
			<path d="M53.2494 0H29.7891V6.43174H53.2494V0Z" fill="#E3000F" />
			<path
				d="M66.1728 23.4426V3.0166H71.4547V23.4426H66.1728ZM64.9047 19.8947C63.17 19.8947 61.6746 19.5955 60.4244 19.0032C59.1742 18.4049 58.2111 17.5792 57.5412 16.5143C56.8712 15.4493 56.5303 14.2048 56.5303 12.7749C56.5303 11.345 56.8653 10.0766 57.5412 9.02355C58.2111 7.97054 59.1742 7.14488 60.4244 6.54658C61.6746 5.94828 63.17 5.65511 64.9047 5.65511H68.2126V9.84321H65.1799C64.4979 9.84321 63.9117 9.95689 63.4212 10.1902C62.9248 10.4176 62.5419 10.7586 62.2727 11.2014C61.9976 11.6441 61.866 12.1706 61.866 12.7869C61.866 13.4031 62.0036 13.9296 62.2727 14.3724C62.5419 14.8151 62.9248 15.1501 63.4212 15.3835C63.9177 15.6108 64.5039 15.7305 65.1799 15.7305H68.2365V19.9186H64.8987L64.9047 19.8947ZM69.3611 19.8947V15.7066H72.4178C73.1176 15.7066 73.7098 15.5929 74.2063 15.3596C74.6968 15.1322 75.0796 14.7912 75.3548 14.3484C75.624 13.9057 75.7616 13.3792 75.7616 12.7629C75.7616 12.1467 75.624 11.6202 75.3548 11.1774C75.0856 10.7347 74.6968 10.3996 74.2063 10.1663C73.7098 9.93894 73.1176 9.81928 72.4178 9.81928H69.385V5.63117H72.7228C74.4575 5.63117 75.953 5.93033 77.2032 6.52265C78.4533 7.12095 79.4164 7.94062 80.0864 8.99961C80.7563 10.0526 81.0913 11.3031 81.0913 12.751C81.0913 14.1989 80.7563 15.4254 80.0864 16.4903C79.4164 17.5553 78.4533 18.381 77.2032 18.9793C75.953 19.5776 74.4575 19.8707 72.7228 19.8707H69.3611V19.8947Z"
				fill="currentColor" />
			<path
				d="M94.3759 18.4948C95.6201 18.4948 96.6909 18.2795 97.5941 17.8547C98.4973 17.4299 99.1912 16.8256 99.6757 16.0418C100.16 15.258 100.406 14.3247 100.406 13.2358C100.406 12.1469 100.16 11.2075 99.6757 10.4297C99.1912 9.64597 98.4973 9.04168 97.5941 8.61689C96.6909 8.19209 95.6201 7.97671 94.3759 7.97671C93.1317 7.97671 92.0849 8.19209 91.1877 8.61689C90.2844 9.04168 89.5905 9.64597 89.094 10.4297C88.6035 11.2135 88.3523 12.1469 88.3523 13.2358C88.3523 14.3247 88.5976 15.258 89.094 16.0418C89.5846 16.8256 90.2844 17.4299 91.1877 17.8547C92.0909 18.2795 93.1556 18.4948 94.3759 18.4948ZM94.3759 23.2154C92.1148 23.2154 90.1289 22.7966 88.4181 21.965C86.7073 21.1333 85.3794 19.9667 84.4343 18.4649C83.4892 16.9692 83.0166 15.2221 83.0166 13.2298C83.0166 11.2374 83.4892 9.49639 84.4343 7.99465C85.3794 6.4989 86.7073 5.33221 88.4181 4.49459C90.1289 3.66295 92.1148 3.24414 94.3759 3.24414C96.637 3.24414 98.6469 3.66295 100.346 4.49459C102.045 5.32623 103.372 6.49292 104.33 7.99465C105.281 9.49041 105.759 11.2374 105.759 13.2298C105.759 15.2221 105.281 16.9632 104.33 18.4649C103.378 19.9607 102.05 21.1274 100.346 21.965C98.6469 22.7966 96.655 23.2154 94.3759 23.2154Z"
				fill="currentColor" />
			<path
				d="M119.237 3.66272C120.834 3.66272 122.222 3.93794 123.382 4.48239C124.549 5.02685 125.434 5.79866 126.05 6.79183C126.66 7.78501 126.971 8.9517 126.971 10.2739C126.971 11.5962 126.666 12.739 126.05 13.7321C125.44 14.7253 124.549 15.4971 123.382 16.0416C122.216 16.586 120.834 16.8612 119.237 16.8612H110.94V12.6253H118.902C119.751 12.6253 120.415 12.4159 120.894 11.9971C121.372 11.5782 121.606 11.0039 121.606 10.2739C121.606 9.54402 121.366 8.93974 120.894 8.52691C120.415 8.1081 119.751 7.89869 118.902 7.89869H111.401L113.776 5.44566V22.8024H108.494V3.65674H119.237V3.66272Z"
				fill="currentColor" />
			<path
				d="M157.245 3.6626V22.8082H152.215V5.54724L153.339 5.67887L145.94 22.8082H140.58L133.151 5.72673L134.299 5.60109V22.8082H129.269V3.6626H137.44L144.307 20.0979H142.261L149.074 3.6626H157.245Z"
				fill="currentColor" />
			<path
				d="M174.729 3.6626L183.433 22.8082H177.792L170.494 5.90623H172.026L164.698 22.8082H159.057L167.761 3.6626H174.729ZM164.548 19.1347V14.8688H177.744V19.1347H164.548Z"
				fill="currentColor" />
			<path
				d="M188.092 3.59717H207.999L207.975 8.29383H188.092V3.59717ZM195.39 5.91857H200.695L200.671 22.7428H195.39V5.91857Z"
				fill="#E3000F" />
			<path d="M207.946 29.0127H56.5903V31.2503H207.946V29.0127Z" fill="currentColor" />
			<path
				d="M207.127 41.3556C207.127 42.277 206.553 43.0308 205.728 43.0308C205.111 43.0308 204.651 42.7077 204.651 42.2171C204.651 41.6248 205.261 41.218 206.146 41.218C206.511 41.218 206.804 41.2479 207.127 41.3496V41.3556ZM207.127 43.5813H207.827V40.5658C207.827 39.5367 207.043 38.8248 205.907 38.8248C205.195 38.8248 204.615 39.0521 204.166 39.4649L204.519 39.8419C204.902 39.5427 205.422 39.4171 205.937 39.4171C206.631 39.4171 207.121 39.8897 207.121 40.5838V40.859C206.792 40.7932 206.457 40.7633 206.092 40.7633C204.818 40.7633 203.945 41.3735 203.945 42.2829C203.945 43.0727 204.573 43.6231 205.476 43.6231C206.242 43.6231 206.834 43.1924 207.121 42.5282V43.5813H207.127ZM196.611 41.1581C196.611 40.2068 197.204 39.435 198.029 39.435C198.855 39.435 199.441 40.141 199.441 41.224C199.441 42.3069 198.795 43.0248 197.85 43.0248C197.341 43.0248 196.94 42.9052 196.611 42.6958V41.1581ZM195.911 45.6992H196.611V43.2701C196.982 43.5035 197.419 43.6112 197.915 43.6112C199.243 43.6112 200.153 42.6479 200.153 41.224C200.153 39.8 199.399 38.8367 198.322 38.8367C197.521 38.8367 196.904 39.3393 196.611 40.0991V38.8666H195.911V45.6992ZM191.898 38.8666H191.198L189.475 42.7436L187.77 38.8666H187.076L189.134 43.5693L188.835 44.2274C188.608 44.748 188.38 45.1488 187.98 45.1488C187.734 45.1488 187.507 45.095 187.358 44.9514L186.993 45.3403C187.256 45.6215 187.585 45.7471 188.022 45.7471C188.686 45.7471 189.086 45.2206 189.403 44.4847L191.892 38.8666H191.898ZM178.971 39.459H180.766V43.5813H181.466V39.459H183.26V38.8666H178.971V39.459ZM171.949 43.5813V42.1214L172.732 41.2838L174.407 43.5813H175.197L173.175 40.7992L174.951 38.8666H174.114L171.949 41.206V38.8666H171.237V43.5813H171.949ZM166.266 41.3556C166.266 42.277 165.692 43.0308 164.866 43.0308C164.25 43.0308 163.79 42.7077 163.79 42.2171C163.79 41.6248 164.4 41.218 165.285 41.218C165.65 41.218 165.943 41.2479 166.266 41.3496V41.3556ZM166.266 43.5813H166.966V40.5658C166.966 39.5367 166.182 38.8248 165.046 38.8248C164.334 38.8248 163.754 39.0521 163.305 39.4649L163.658 39.8419C164.041 39.5427 164.561 39.4171 165.076 39.4171C165.77 39.4171 166.26 39.8897 166.26 40.5838V40.859C165.931 40.7932 165.596 40.7633 165.231 40.7633C163.957 40.7633 163.084 41.3735 163.084 42.2829C163.084 43.0727 163.712 43.6231 164.615 43.6231C165.381 43.6231 165.973 43.1924 166.26 42.5282V43.5813H166.266ZM156.205 42.9889C155.212 42.9889 154.53 42.265 154.53 41.224C154.53 40.1829 155.212 39.459 156.205 39.459V42.983V42.9889ZM156.905 39.4649C157.898 39.4649 158.579 40.1889 158.579 41.2299C158.579 42.271 157.898 42.9949 156.905 42.9949V39.4709V39.4649ZM156.905 45.7052V43.5813C158.316 43.5813 159.297 42.624 159.297 41.224C159.297 39.8239 158.316 38.8666 156.905 38.8666V36.7427H156.205V38.8666C154.787 38.8666 153.812 39.8239 153.812 41.224C153.812 42.624 154.787 43.5813 156.205 43.5813V45.7052H156.905ZM150.396 38.8726H149.697L147.974 42.7496L146.269 38.8726H145.575L147.633 43.5753L147.334 44.2334C147.106 44.7539 146.879 45.1548 146.478 45.1548C146.233 45.1548 146.006 45.1009 145.862 44.9573L145.497 45.3462C145.761 45.6275 146.09 45.7531 146.526 45.7531C147.19 45.7531 147.591 45.2266 147.908 44.4907L150.396 38.8726ZM140.844 43.5872H141.555V38.8726H140.844V40.859H138.194V38.8726H137.482V43.5872H138.194V41.4573H140.844V43.5872ZM132.511 41.3616C132.511 42.2829 131.937 43.0368 131.111 43.0368C130.495 43.0368 130.035 42.7137 130.035 42.2231C130.035 41.6308 130.645 41.224 131.53 41.224C131.895 41.224 132.188 41.2539 132.511 41.3556V41.3616ZM132.511 43.5872H133.211V40.5718C133.211 39.5427 132.427 38.8307 131.291 38.8307C130.579 38.8307 129.999 39.0581 129.55 39.4709L129.903 39.8479C130.286 39.5487 130.806 39.4231 131.321 39.4231C132.015 39.4231 132.505 39.8957 132.505 40.5898V40.865C132.176 40.7992 131.841 40.7692 131.476 40.7692C130.202 40.7692 129.329 41.3795 129.329 42.2889C129.329 43.0787 129.957 43.6291 130.86 43.6291C131.626 43.6291 132.218 43.1983 132.505 42.5342V43.5872H132.511ZM120.027 43.5872H120.739V39.9974L122.45 43.5872H122.868L124.591 39.9974V43.5872H125.291V38.8726H124.484L122.665 42.4923L120.847 38.8726H120.039V43.5872H120.027ZM110.397 41.1761H109.128C108.572 41.1761 108.183 40.8291 108.183 40.3265C108.183 39.8239 108.572 39.4709 109.128 39.4709H110.397V41.1761ZM107.364 43.5872H108.118L109.392 41.7205H110.385L110.397 43.5872H111.096L111.084 38.8726H108.973C108.088 38.8726 107.477 39.459 107.477 40.3265C107.477 41.0445 107.95 41.5889 108.68 41.6846L107.358 43.5872H107.364ZM102.686 41.3616C102.686 42.2829 102.112 43.0368 101.286 43.0368C100.67 43.0368 100.21 42.7137 100.21 42.2231C100.21 41.6308 100.82 41.224 101.705 41.224C102.07 41.224 102.363 41.2539 102.686 41.3556V41.3616ZM102.686 43.5872H103.386V40.5718C103.386 39.5427 102.602 38.8307 101.466 38.8307C100.754 38.8307 100.174 39.0581 99.7251 39.4709L100.078 39.8479C100.461 39.5487 100.981 39.4231 101.496 39.4231C102.19 39.4231 102.68 39.8957 102.68 40.5898V40.865C102.351 40.7992 102.016 40.7692 101.651 40.7692C100.377 40.7692 99.5038 41.3795 99.5038 42.2889C99.5038 43.0787 100.132 43.6291 101.035 43.6291C101.801 43.6291 102.393 43.1983 102.68 42.5342V43.5872H102.686ZM94.7543 43.5872H95.4661V38.8726H94.7543V40.859H92.1044V38.8726H91.3926V43.5872H92.1044V41.4573H94.7543V43.5872ZM83.5027 37.2452C83.9034 37.67 84.4478 37.9153 85.0759 37.9153C85.7039 37.9153 86.2483 37.67 86.649 37.2452L86.2961 36.8683C86.003 37.1794 85.5664 37.3589 85.0759 37.3589C84.5853 37.3589 84.1487 37.1794 83.8556 36.8683L83.5027 37.2452ZM83.0181 43.5872H83.73L86.4217 39.9376V43.5872H87.1336V38.8726H86.4217L83.73 42.5223V38.8726H83.0181V43.5872ZM75.3795 40.9188C75.4632 40.0214 76.0434 39.4171 76.845 39.4171C77.6465 39.4171 78.2447 40.0214 78.2746 40.9188H75.3795ZM78.9864 41.4393V41.2299C78.9864 39.806 78.1011 38.8248 76.827 38.8248C75.5529 38.8248 74.6616 39.806 74.6616 41.2299C74.6616 42.6539 75.6367 43.6351 77.0304 43.6351C77.7303 43.6351 78.3344 43.3898 78.7532 42.959C78.6275 42.8154 78.49 42.6778 78.3643 42.5462C78.0653 42.8693 77.6166 43.0548 77.0723 43.0548C76.1152 43.0548 75.4333 42.3966 75.3795 41.4453H78.9924L78.9864 41.4393ZM67.986 39.4709H69.1584C69.625 39.4709 69.9301 39.7701 69.9301 40.1949C69.9301 40.6197 69.631 40.9188 69.1584 40.9188H67.986V39.4649V39.4709ZM67.986 41.4393H69.3319C69.8523 41.4393 70.1694 41.7624 70.1694 42.2111C70.1694 42.6599 69.8523 42.9949 69.3678 42.9949H67.986V41.4393ZM69.3977 38.8726H67.2742V43.5872H69.5592C70.3428 43.5872 70.8692 43.0667 70.8692 42.3129C70.8692 41.7385 70.5342 41.2957 70.0318 41.1342C70.4026 40.9427 70.63 40.5658 70.63 40.0872C70.63 39.3692 70.1395 38.8726 69.3917 38.8726H69.3977ZM60.1858 38.8726H59.486V42.9949H57.3984V38.8726H56.6865V43.5872H62.9793V38.8726H62.2794V42.9949H60.1858V38.8726Z"
				fill="currentColor" />
		</g>
	</symbol>
	<symbol id="svg-phone" viewBox="0 0 17 17">
		<g>

			<path
				d="M10.8006 11.4113L11.9906 10.2213C12.1508 10.063 12.3536 9.95463 12.5743 9.90936C12.795 9.86409 13.024 9.88387 13.2337 9.96627L14.684 10.5453C14.8959 10.6313 15.0775 10.7781 15.2061 10.9672C15.3347 11.1563 15.4044 11.3792 15.4065 11.6078V14.2641C15.4053 14.4196 15.3726 14.5733 15.3104 14.7159C15.2482 14.8584 15.1578 14.987 15.0446 15.0937C14.9314 15.2004 14.7979 15.2831 14.6519 15.3368C14.5059 15.3905 14.3506 15.4142 14.1952 15.4063C4.03243 14.7741 1.9818 6.16783 1.59399 2.87408C1.57599 2.71234 1.59243 2.54861 1.64225 2.39368C1.69207 2.23875 1.77413 2.09612 1.88302 1.97518C1.99192 1.85423 2.1252 1.75772 2.27407 1.69198C2.42295 1.62624 2.58406 1.59277 2.7468 1.59377H5.31274C5.54171 1.59445 5.76525 1.66361 5.95459 1.79237C6.14394 1.92112 6.29043 2.10358 6.37524 2.31627L6.9543 3.76658C7.03944 3.9754 7.06116 4.20468 7.01675 4.42577C6.97234 4.64686 6.86378 4.84996 6.70461 5.00971L5.51461 6.19971C5.51461 6.19971 6.19993 10.8375 10.8006 11.4113Z"
				fill="currentColor" />
		</g>
	</symbol>
	<symbol id="svg-envelope"  viewBox="0 0 24 18">
		<g>

			<path
				d="M22.5 0H1.5C1.10218 0 0.720644 0.158035 0.43934 0.43934C0.158035 0.720644 0 1.10218 0 1.5V16.5C0 16.8978 0.158035 17.2794 0.43934 17.5607C0.720644 17.842 1.10218 18 1.5 18H22.5C22.8978 18 23.2794 17.842 23.5607 17.5607C23.842 17.2794 24 16.8978 24 16.5V1.5C24 1.10218 23.842 0.720644 23.5607 0.43934C23.2794 0.158035 22.8978 0 22.5 0ZM21.345 16.5H2.745L7.995 11.07L6.915 10.0275L1.5 15.63V2.64L10.8225 11.9175C11.1035 12.1969 11.4837 12.3537 11.88 12.3537C12.2763 12.3537 12.6565 12.1969 12.9375 11.9175L22.5 2.4075V15.5325L16.98 10.0125L15.9225 11.07L21.345 16.5ZM2.4825 1.5H21.285L11.88 10.8525L2.4825 1.5Z"
				fill="currentColor" />
		</g>
	</symbol>
	<symbol id="svg-cart"  viewBox="0 0 40 40">
		<g>

			<path
				d="M12.5 33.3335C13.8807 33.3335 15 32.2142 15 30.8335C15 29.4528 13.8807 28.3335 12.5 28.3335C11.1193 28.3335 10 29.4528 10 30.8335C10 32.2142 11.1193 33.3335 12.5 33.3335Z"
				fill="currentColor" />
			<path
				d="M27.5 33.3335C28.8807 33.3335 30 32.2142 30 30.8335C30 29.4528 28.8807 28.3335 27.5 28.3335C26.1193 28.3335 25 29.4528 25 30.8335C25 32.2142 26.1193 33.3335 27.5 33.3335Z"
				fill="currentColor" />
			<path
				d="M5 8.3335H8.33333L9.33333 13.3335M9.33333 13.3335L11.6667 25.0002H28.3333L31.6667 13.3335H9.33333Z"
				stroke="currentColor" stroke-width="2" stroke-linecap="round"
				stroke-linejoin="round" />
		</g>
	</symbol>
	<symbol id="svg-benefit1" viewBox="0 0 68 69">
		<g>
			<path
				d="M56.6668 37.375C56.6668 51.75 46.7502 58.9375 34.9635 63.1063C34.3463 63.3185 33.6759 63.3083 33.0652 63.0775C21.2502 58.9375 11.3335 51.75 11.3335 37.375V17.25C11.3335 16.4875 11.632 15.7562 12.1634 15.2171C12.6947 14.6779 13.4154 14.375 14.1668 14.375C19.8335 14.375 26.9168 10.925 31.8468 6.55501C32.4471 6.03463 33.2107 5.74872 34.0002 5.74872C34.7897 5.74872 35.5532 6.03463 36.1535 6.55501C41.1118 10.9538 48.1668 14.375 53.8335 14.375C54.5849 14.375 55.3056 14.6779 55.837 15.2171C56.3683 15.7562 56.6668 16.4875 56.6668 17.25V37.375Z"
				stroke="black" stroke-width="2" stroke-linecap="round" stroke-linejoin="round" />
			<path d="M25.5 34.5L31.1667 40.25L42.5 28.75" stroke="black" stroke-width="2"
				stroke-linecap="round" stroke-linejoin="round" />
		</g>
	</symbol>
	<symbol id="svg-benefit2" viewBox="0 0 69 69">
		<g>
			
			<path
				d="M17.25 51.75H51.75M17.25 40.25H51.75M63.25 24.0062V57.5C63.25 59.025 62.6442 60.4875 61.5659 61.5658C60.4875 62.6442 59.025 63.25 57.5 63.25H11.5C9.97501 63.25 8.51247 62.6442 7.43414 61.5658C6.3558 60.4875 5.75 59.025 5.75 57.5V24.0062C5.75463 22.8595 6.10201 21.7404 6.74752 20.7926C7.39302 19.8449 8.30717 19.1117 9.3725 18.6875L32.3725 9.48747C33.7387 8.94338 35.2613 8.94338 36.6275 9.48747L59.6275 18.6875C60.6928 19.1117 61.607 19.8449 62.2525 20.7926C62.898 21.7404 63.2454 22.8595 63.25 24.0062Z"
				stroke="black" stroke-width="2" stroke-linecap="round" stroke-linejoin="round" />
			<path d="M17.25 28.75H51.75V63.25H17.25V28.75Z" stroke="black" stroke-width="2"
				stroke-linecap="round" stroke-linejoin="round" />
		</g>
	</symbol>
	<symbol id="svg-benefit3" viewBox="0 0 68 69">
		<g>
			
			<path
				d="M19.8332 28.75V63.25M42.4998 16.905L39.6665 28.75H56.1848C57.0646 28.75 57.9322 28.9578 58.719 29.357C59.5059 29.7563 60.1903 30.3359 60.7182 31.05C61.246 31.7641 61.6027 32.5931 61.7601 33.4714C61.9175 34.3497 61.8712 35.253 61.6248 36.11L55.0232 59.11C54.6799 60.3044 53.9641 61.3535 52.9832 62.1C52.0023 62.8465 50.8093 63.25 49.5832 63.25H11.3332C9.83028 63.25 8.38894 62.6442 7.32623 61.5659C6.26353 60.4875 5.6665 59.025 5.6665 57.5V34.5C5.6665 32.975 6.26353 31.5125 7.32623 30.4341C8.38894 29.3558 9.83028 28.75 11.3332 28.75H19.1532C20.2074 28.7494 21.2406 28.4505 22.1365 27.8867C23.0325 27.3229 23.7557 26.5167 24.2248 25.5588L33.9998 5.75C35.336 5.76679 36.6511 6.08974 37.847 6.69471C39.0428 7.29969 40.0885 8.17106 40.9058 9.24371C41.7232 10.3164 42.2911 11.5626 42.5671 12.8892C42.8431 14.2159 42.8201 15.5886 42.4998 16.905Z"
				stroke="black" stroke-width="2" stroke-linecap="round" stroke-linejoin="round" />
		</g>
	</symbol>
	<symbol id="svg-benefit4" viewBox="0 0 69 69">
		<g>
			
			<path
				d="M12.9375 47.4375C8.625 51.06 7.1875 61.8125 7.1875 61.8125C7.1875 61.8125 17.94 60.375 21.5625 56.0625C23.6037 53.6475 23.575 49.9387 21.3037 47.6962C20.1863 46.6296 18.7142 46.0133 17.1702 45.9656C15.6261 45.9178 14.1188 46.442 12.9375 47.4375ZM34.5 43.125L25.875 34.5C27.4049 30.5308 29.3313 26.7262 31.625 23.1437C34.9749 17.7876 39.6394 13.3775 45.1749 10.333C50.7103 7.28849 56.9327 5.7108 63.25 5.74998C63.25 13.57 61.0075 27.3125 46 37.375C42.3681 39.6705 38.5155 41.5967 34.5 43.125Z"
				stroke="black" stroke-width="2" stroke-linecap="round" stroke-linejoin="round" />
			<path
				d="M25.875 34.5H11.5C11.5 34.5 13.0812 25.7887 17.25 23C21.9075 19.895 31.625 23 31.625 23M34.5 43.125V57.5C34.5 57.5 43.2112 55.9187 46 51.75C49.105 47.0925 46 37.375 46 37.375"
				stroke="black" stroke-width="2" stroke-linecap="round" stroke-linejoin="round" />
		</g>
	</symbol>
	<symbol id="svg-benefit5" viewBox="0 0 68 69">
		<g>
			
			<path
				d="M56.6666 8.62498V20.125M62.3332 14.375H50.9999M11.3332 48.875V54.625M14.1666 51.75H8.49991M28.1547 44.5625C27.9018 43.5675 27.3907 42.6595 26.6747 41.933C25.9586 41.2064 25.0638 40.6878 24.0832 40.4311L6.70075 35.8829C6.40418 35.7974 6.14317 35.6162 5.95731 35.3666C5.77146 35.1171 5.6709 34.8128 5.6709 34.5C5.6709 34.1872 5.77146 33.8829 5.95731 33.6333C6.14317 33.3838 6.40418 33.2025 6.70075 33.1171L24.0832 28.566C25.0634 28.3096 25.958 27.7914 26.674 27.0653C27.3901 26.3393 27.9013 25.4319 28.1547 24.4375L32.6371 6.79936C32.7204 6.49725 32.8988 6.23109 33.1452 6.04149C33.3915 5.8519 33.6922 5.74927 34.0013 5.74927C34.3105 5.74927 34.6112 5.8519 34.8575 6.04149C35.1038 6.23109 35.2823 6.49725 35.3656 6.79936L39.8451 24.4375C40.098 25.4324 40.6091 26.3404 41.3252 27.067C42.0412 27.7936 42.936 28.3122 43.9166 28.5689L61.2991 33.1142C61.598 33.1979 61.8616 33.3788 62.0495 33.6291C62.2373 33.8794 62.339 34.1853 62.339 34.5C62.339 34.8146 62.2373 35.1206 62.0495 35.3709C61.8616 35.6212 61.598 35.8021 61.2991 35.8857L43.9166 40.4311C42.936 40.6878 42.0412 41.2064 41.3252 41.933C40.6091 42.6595 40.098 43.5675 39.8451 44.5625L35.3627 62.2006C35.2794 62.5027 35.101 62.7689 34.8547 62.9585C34.6083 63.1481 34.3077 63.2507 33.9985 63.2507C33.6893 63.2507 33.3886 63.1481 33.1423 62.9585C32.896 62.7689 32.7176 62.5027 32.6342 62.2006L28.1547 44.5625Z"
				stroke="black" stroke-width="2" stroke-linecap="round" stroke-linejoin="round" />
		</g>
	</symbol>
	<symbol id="svg-paper" viewBox="0 0 20 20">
		<g>
			<path
				d="M15.6998 10.2083L17.1332 8.78329H17.1165C17.8837 7.98833 18.3041 6.9214 18.2853 5.81677C18.2666 4.71214 17.8102 3.6601 17.0165 2.89163C16.239 2.14179 15.2009 1.72278 14.1207 1.72278C13.0405 1.72278 12.0024 2.14179 11.2248 2.89163L9.7915 4.31663M4.30817 9.79163L2.88317 11.2166C2.11598 12.0116 1.69561 13.0785 1.71436 14.1831C1.73311 15.2878 2.18944 16.3398 2.98317 17.1083C3.76071 17.8581 4.7988 18.2771 5.879 18.2771C6.9592 18.2771 7.99729 17.8581 8.77484 17.1083L10.1998 15.6833M6.6665 1.66663V4.16663M1.6665 6.66663H4.1665M13.3332 15.8333V18.3333M15.8332 13.3333H18.3332"
					stroke="#454545" stroke-width="2" stroke-linecap="round" stroke-linejoin="round" />
			
		</g>
	</symbol>
	<!-- <symbol id="svg-">
		<g></g>
	</symbol>
	<symbol id="svg-">
		<g></g>
	</symbol>
	<symbol id="svg-">
		<g></g>
	</symbol> -->

</svg>